<?xml version="1.0" encoding="UTF-8"?>
<svg width="40px" height="40px" viewBox="0 0 40 40" version="1.1" xmlns="http://www.w3.org/2000/svg" xmlns:xlink="http://www.w3.org/1999/xlink">
    <title>矩形</title>
    <g id="示例" stroke="none" stroke-width="1" fill="none" fill-rule="evenodd">
        <g id="编组-40" fill="#00FF00">
            <path d="M28,0 C34.627417,-1.21743675e-15 40,5.372583 40,12 L40,28 C40,34.627417 34.627417,40 28,40 L12,40 C5.372583,40 8.11624501e-16,34.627417 0,28 L0,12 C-8.11624501e-16,5.372583 5.372583,1.21743675e-15 12,0 L28,0 Z M28,2 L12,2 C6.4771525,2 2,6.4771525 2,12 L2,12 L2,28 C2,33.5228475 6.4771525,38 12,38 L12,38 L28,38 C33.5228475,38 38,33.5228475 38,28 L38,28 L38,12 C38,6.4771525 33.5228475,2 28,2 L28,2 Z" id="形状结合"></path>
        </g>
    </g>
</svg>